<?xml version="1.0" encoding="utf-8"?>
<!-- Generator: Adobe Illustrator 23.0.4, SVG Export Plug-In . SVG Version: 6.00 Build 0)  -->
<svg version="1.1" xmlns="http://www.w3.org/2000/svg" xmlns:xlink="http://www.w3.org/1999/xlink" x="0px" y="0px"
	 viewBox="0 0 841 800" style="enable-background:new 0 0 841 800;" xml:space="preserve">
<g id="Layer_2">
	<rect x="0" y="1" style="fill:#CA4D46;" width="840.5" height="798"/>
</g>
<g id="Layer_1">
	<path style="fill:#FDFEFE;" d="M615.9,378c0,37.1-0.1,74.1,0.1,111.2c0,3.9-2.1,5.7-4.8,7.5c-12.7,8.5-25.5,17-38.3,25.5
		c-44.3,29.5-88.6,59-132.9,88.4c-1.4,1-2.9,3.1-4.6,2.2c-1.6-0.9-0.9-3.3-1-5.1c-0.7-46.8-1.2-93.7-1.9-140.5
		c-0.4-27.9-0.9-55.7-1.5-83.6c-0.1-4,1.2-6.4,4.5-8.5c58.5-36.9,116.9-73.8,175.4-110.7c1.2-0.7,2.4-2.5,3.9-1.4
		c0.7,0.6,0.5,2.5,0.5,3.8c0,37.1,0,74.1,0,111.2C615.6,378,615.8,378,615.9,378z M607.6,323.4c-0.1-2.6-0.1-4.5-0.4-6.5
		c-1.4-9.7-9.1-14.5-18.4-11.5c-15.8,5.2-29.3,30.8-24.7,46.7c2.5,8.5,9.4,12.1,17.9,9.3c2.4-0.8,4.7-2,6.7-3.6
		C600.3,349,606.3,337.2,607.6,323.4z M511.1,449.2c0,8.5,1.1,14.6,7.3,18c6.4,3.5,12.4,1.1,17.6-2.7c12.2-8.9,18.5-21.2,19.3-36.1
		c0.6-11.4-6.1-18.5-15.6-17.3c-3.5,0.4-6.7,1.9-9.4,4C518.4,424.2,512.1,436.4,511.1,449.2z M497.9,541.2c0-16.3-8.2-23-19.3-18.9
		c-15.7,5.9-28.3,30-24.1,46.2c2,7.9,8,11.6,16,10c2.8-0.6,5.4-1.8,7.7-3.4C490.6,566,496.9,553.6,497.9,541.2z"/>
	<path style="fill:#FDFEFE;" d="M414.4,611.8c-17.9-9.5-35.7-19-53.7-28.4c-46.5-24.4-93.1-48.7-139.7-72.9
		c-3.1-1.6-4.2-3.7-4.3-7.1c-1.2-42.2-2.4-84.3-3.8-126.5c-1-30.9-2.1-61.7-3.2-92.6c-0.2-5.5-0.3-5.6,4.8-3.1
		c65.3,31.1,130.6,62.1,195.8,93.2c1.1,0.5,2.2,0.9,3.3,1.4c2.4,1.4,2.9,3.5,2.9,6.1c1.1,74.9,2.3,149.7,3.5,224.6
		c0,1.2-0.1,2.4,0,3.6c0.4,3.8-1.1,4.2-4,2.4C415.6,612.1,415,612,414.4,611.8z M270.8,501.1c0.2-4.4-0.6-8.4-2-12.2
		c-4.7-12.8-11.7-23.8-25.6-28.2c-8.1-2.5-14.7,0.9-17.5,8.9c-2.1,6-1.8,12.2,0,18.2c4.2,13.8,11.4,25.2,25.8,30.2
		c8.6,2.9,16.1-1.3,18.5-10C270.6,505.7,271.2,503.3,270.8,501.1z M363.4,378.5c-7,0-11.9,4-13.9,11c-1.7,6.2-1.1,12.3,0.9,18.2
		c4.2,12.6,11,23.2,23.8,28.3c10.5,4.2,19-1.2,20.5-12.3c2.2-15.7-8.4-35.9-22.7-42.9C369.4,379.4,366.4,378.3,363.4,378.5z
		 M381.5,584c8.4,0,12.8-3,15.1-9.1c1.8-4.9,2-10,0.9-15.1c-3-14.4-10.1-26.1-23.7-32.7c-10.7-5.2-19.7-0.4-21.7,11.3
		c-2.3,13.6,3.2,25,11.9,35C369.1,579.3,375.2,583.7,381.5,584z M220.2,332.9c-0.3,4.2,0.1,7.2,0.9,10.1c3.7,13.1,10.5,24,23.3,29.9
		c10.2,4.7,18.7,0.4,21.5-10.4c4.2-16.4-10.1-41.4-26.3-46c-9.9-2.8-18.2,2.8-19.3,13.1C220.1,331,220.2,332.6,220.2,332.9z
		 M331.8,459.8c-0.1-3-0.4-6-1.3-8.9c-4.2-13.4-11.1-24.7-24.9-30c-9.2-3.5-16.9,0.7-19.5,10.1c-1.4,5.1-1.2,10.1,0.1,15.1
		c3.5,13.5,10.5,24.6,23.5,30.8c10,4.7,19.1,0.2,21.5-10.3C331.7,464.4,331.6,462.1,331.8,459.8z"/>
	<path style="fill:#FDFDFE;" d="M414.4,360.4c-16.9-8.1-33.7-16.3-50.6-24.4c-47.4-22.6-94.8-45.2-142.2-67.7c-1-0.5-2-1-3.7-1.8
		c11-6.2,21.3-12.2,31.7-18.1c47.9-27.2,95.9-54.2,143.8-81.6c6-3.5,11.3-4,17.2-0.7c0.9,0.5,2,0.7,2.9,1
		c20,8.6,39.9,17.3,59.9,25.8c42.9,18.3,85.9,36.4,128.8,54.7c1.2,0.5,3.1,0.6,3,2.2c-0.1,1.6-2,2.2-3.2,2.9
		c-30.3,19.2-60.7,38.4-91.1,57.5c-25.2,15.9-50.5,31.6-75.4,47.8C428.5,362.7,422.2,365.7,414.4,360.4z M413.6,333.4
		c11.9,3.1,23.4,1.8,34.5-3.5c5.2-2.5,9.8-6.1,9.8-12.3c0-6.3-4.9-9.8-10.1-12.1c-11.1-4.9-22.5-5.3-34.2-2.2
		c-5.8,0.9-10.9,3.4-15,7.5c-5.1,5.1-5,11.3,0.5,16.1C403.2,330.6,408.1,332.9,413.6,333.4z M413,186.5c-14.5-5-28.7-4.5-42.1,3.2
		c-11,6.3-10.6,16.8,0.7,22.4c13.4,6.7,27.4,6.6,41.3,1.3c6.6-2.5,13-5.9,13-13.7C425.9,192,419.4,188.8,413,186.5z M297.7,241.1
		c-10.7,0-19.6,1.6-27.4,6.9c-9,6.2-8.7,15.1,0.5,20.9c13.2,8.3,36.9,7.6,49.7-1.5c8.5-6,8.3-14.8-0.5-20.4
		C312.8,242.5,304.7,241,297.7,241.1z M360,271.4c-10.5,0.6-18.2,2.6-23.8,6.1c-10.5,6.6-10.2,16.4,0.5,22.5c6.2,3.5,13,4.7,19.9,5
		c10.1,0.3,19.8-1.2,28.4-7c8.6-5.9,8.6-14.7-0.1-20.5C377,272.3,368.1,271.5,360,271.4z M524.5,273.8c9.2,0.1,18-1.6,25.7-6.8
		c9.3-6.2,9.3-15.9-0.6-21.1c-16.1-8.5-32.8-8.1-48.5,1.1c-9.7,5.7-9.4,15.1,0.1,21.1C508.3,272.5,516.3,273.9,524.5,273.8z
		 M458.2,244.9c10.9,0,20.2-2.5,26.5-7.1c8.5-6.2,8.5-15.3-0.7-20.3c-16.2-8.9-32.9-8.7-48.8,0.6c-10.1,5.9-9.5,15.7,0.6,21.6
		C442.6,243.7,450.2,245,458.2,244.9z"/>
	<path style="fill:#FDFEFE;" d="M607.6,323.4c-1.3,13.8-7.3,25.5-18.8,34.4c-2,1.6-4.3,2.7-6.7,3.6c-8.5,2.9-15.4-0.7-17.9-9.3
		c-4.7-15.8,8.9-41.5,24.7-46.7c9.3-3,16.9,1.7,18.4,11.5C607.5,318.9,607.4,320.9,607.6,323.4z"/>
	<path style="fill:#FDFEFE;" d="M511.1,449.2c0.9-12.8,7.2-25,19.2-34c2.8-2.1,5.9-3.6,9.4-4c9.6-1.2,16.3,5.8,15.6,17.3
		c-0.8,14.9-7.2,27.2-19.3,36.1c-5.2,3.8-11.2,6.3-17.6,2.7C512.2,463.8,511.2,457.7,511.1,449.2z"/>
	<path style="fill:#FDFEFE;" d="M497.9,541.2c-0.9,12.3-7.2,24.8-19.7,33.8c-2.3,1.7-4.9,2.9-7.7,3.4c-8,1.6-14-2.1-16-10
		c-4.2-16.1,8.4-40.2,24.1-46.2C489.7,518.2,497.8,524.9,497.9,541.2z"/>
	<path d="M270.8,501.1c0.4,2.2-0.3,4.6-0.9,6.9c-2.4,8.7-9.9,13-18.5,10c-14.4-4.9-21.6-16.4-25.8-30.2c-1.8-6-2.1-12.2,0-18.2
		c2.8-8,9.4-11.4,17.5-8.9c13.9,4.4,20.9,15.4,25.6,28.2C270.3,492.7,271.1,496.8,270.8,501.1z"/>
	<path d="M363.4,378.5c2.9-0.2,5.9,0.9,8.8,2.2c14.3,7,24.9,27.2,22.7,42.9c-1.6,11.2-10.1,16.5-20.5,12.3
		c-12.8-5.1-19.7-15.7-23.8-28.3c-2-5.9-2.6-12-0.9-18.2C351.5,382.5,356.4,378.5,363.4,378.5z"/>
	<path d="M381.5,584c-6.2-0.3-12.4-4.7-17.5-10.6c-8.6-10-14.2-21.3-11.9-35c2-11.7,11.1-16.5,21.7-11.3
		c13.5,6.6,20.7,18.3,23.7,32.7c1.1,5.1,0.9,10.2-0.9,15.1C394.3,581,389.8,584,381.5,584z"/>
	<path d="M220.2,332.9c0-0.3-0.1-1.8,0-3.3c1.1-10.3,9.4-15.9,19.3-13.1c16.2,4.6,30.5,29.6,26.3,46c-2.8,10.7-11.3,15.1-21.5,10.4
		c-12.8-5.9-19.6-16.8-23.3-29.9C220.3,340.1,219.9,337.1,220.2,332.9z"/>
	<path d="M331.8,459.8c-0.2,2.2-0.1,4.5-0.6,6.7c-2.3,10.5-11.5,15-21.5,10.3c-13-6.2-20-17.2-23.5-30.8c-1.3-5-1.5-10.1-0.1-15.1
		c2.6-9.4,10.3-13.6,19.5-10.1c13.8,5.3,20.7,16.6,24.9,30C331.4,453.8,331.7,456.8,331.8,459.8z"/>
	<path d="M297.7,241.1c7.1-0.1,15.1,1.4,22.3,6c8.8,5.6,9,14.3,0.5,20.4c-12.7,9.1-36.5,9.8-49.7,1.5c-9.3-5.8-9.6-14.7-0.5-20.9
		C278.1,242.6,287,241,297.7,241.1z"/>
	<path d="M360,271.4c8.1,0,17,0.9,24.9,6.1c8.7,5.7,8.8,14.6,0.1,20.5c-8.6,5.8-18.3,7.3-28.4,7c-6.9-0.2-13.7-1.5-19.9-5
		c-10.8-6.1-11-15.9-0.5-22.5C341.8,274,349.5,272,360,271.4z"/>
	<path d="M524.5,273.8c-8.3,0.1-16.2-1.3-23.3-5.7c-9.5-6-9.8-15.4-0.1-21.1c15.8-9.2,32.4-9.6,48.5-1.1c9.9,5.2,9.8,14.9,0.6,21.1
		C542.5,272.2,533.7,273.9,524.5,273.8z"/>
	<path d="M458.2,244.9c-7.9,0.1-15.5-1.2-22.5-5.2c-10.1-5.9-10.7-15.7-0.6-21.6c15.9-9.2,32.6-9.5,48.8-0.6
		c9.2,5,9.2,14.1,0.7,20.3C478.4,242.4,469.1,244.9,458.2,244.9z"/>
	<path d="M413,213.4c-14,5.3-27.9,5.4-41.3-1.3c-11.3-5.6-11.7-16.1-0.7-22.4c13.3-7.7,27.6-8.3,42.1-3.2
		C414.1,195.4,414.1,204.4,413,213.4z"/>
	<path d="M413.6,303.4c11.6-3.2,23.1-2.7,34.2,2.2c5.2,2.3,10.1,5.7,10.1,12.1c0,6.3-4.6,9.9-9.8,12.3c-11,5.3-22.5,6.6-34.5,3.5
		C413.6,323.4,413.6,313.4,413.6,303.4z"/>
	<path d="M413.6,303.4c0,10,0,20,0,30.1c-5.6-0.6-10.4-2.8-14.5-6.5c-5.5-4.8-5.7-10.9-0.5-16.1
		C402.7,306.7,407.8,304.3,413.6,303.4z"/>
	<path d="M413,213.4c1.1-9,1.1-18,0-26.9c6.4,2.4,12.9,5.5,13,13.2C426,207.5,419.6,210.9,413,213.4z"/>
	<g>
		<path d="M520.5,362.3c30.2-1.1,49.9,15.5,53.1,35.8c2.8,17-6.9,37.2-31.9,46.8l0.4,10.7c0.6,16.5-30,18.6-30.7,1.1
			c-0.7-19.8-0.3-6.8-0.7-17.7c-0.3-7.4,4.2-11.3,9.9-13.4c14.6-5.1,23.1-10.1,22.6-22.5c-0.3-9.1-11.2-15.7-21.9-15.3
			c-10.2,0.4-18.8,3.2-24.9,12.7c-9.7,13.1-33.4,1.2-25.9-12.7C478.9,376.4,489.1,363.4,520.5,362.3z M512.7,492.7
			c-0.6-16.7,31.1-17.6,31.7-1.2l0.1,3.5c0.6,16.5-31,17.8-31.7,1.2L512.7,492.7z"/>
	</g>
</g>
</svg>
